<svg width="162" height="52" viewBox="0 0 162 52" fill="none" xmlns="http://www.w3.org/2000/svg">
<path fill-rule="evenodd" clip-rule="evenodd" d="M154.373 17.7065L161.139 17.7437C161.139 17.7437 148.56 34.7888 147.533 36.178C147.199 36.6279 146.692 37.113 146.435 37.7144C145.786 39.2262 145.119 42.5424 145.119 42.5424L138.928 42.5731C138.928 42.5731 139.891 39.1166 139.852 37.2754C139.817 35.6668 138.996 34.0605 138.535 32.4473C138.07 30.8146 137.438 27.6192 137.438 27.6192H143.802L144.68 31.1306L154.373 17.7065Z" fill="#1A1918"/>
<path fill-rule="evenodd" clip-rule="evenodd" d="M141.561 21.3011C142.81 22.054 143.576 26.206 143.576 26.206C143.576 26.206 137.043 26.3024 133.487 26.3024H130.415L126.684 42.5423H120.979C120.979 42.5423 124.529 24.8937 125.368 21.694C125.64 20.6583 127.229 20.8358 129.912 20.8358H134.198C136.966 20.8358 140.201 20.4826 141.561 21.3011Z" fill="#1A1918"/>
<path fill-rule="evenodd" clip-rule="evenodd" d="M114.998 29.2105C114.998 29.2105 115.176 28.168 114.395 26.961C113.728 25.9318 113.111 25.6926 111.356 25.6378C106.398 25.482 106.494 29.1557 106.494 29.1557L114.998 29.2105ZM120.375 25.0036C121.102 27.624 119.717 33.7818 119.717 33.7818C119.717 33.7818 112.485 33.661 108.525 33.7818C107.293 33.8193 105.819 33.6479 105.452 34.2208C104.936 35.0238 105.64 36.2596 106.238 36.7817C106.925 37.383 108.263 37.4512 108.744 37.5125C111.959 37.9208 118.688 37.6178 118.688 37.6178L117.522 42.7793C117.522 42.7793 108.013 43.2558 103.257 42.1209C102.318 41.8972 101.438 41.4452 100.843 40.8042C100.681 40.6289 100.54 40.3897 100.387 40.1834C100.264 40.0186 99.9065 39.4767 99.7461 39.0485C98.6599 36.154 99.8734 30.6084 101.063 27.637C101.201 27.2925 101.374 26.856 101.557 26.4848C101.785 26.022 101.978 25.4996 102.16 25.223C102.283 25.0321 102.435 24.9091 102.562 24.7291C102.709 24.5163 102.88 24.31 103.038 24.1259C103.477 23.6166 103.975 23.2566 104.574 22.8093C106.556 21.3256 110.142 20.1734 114.45 20.6146C116.071 20.7812 118.521 21.3606 119.717 23.0286C120.037 23.4741 120.195 24.3583 120.375 25.0036Z" fill="#1A1918"/>
<path fill-rule="evenodd" clip-rule="evenodd" d="M94.2048 20.816L99.7373 20.7832C99.7373 20.7832 96.6541 35.4099 95.0828 42.5424H88.7183C84.2701 42.5424 80.3089 43.0932 78.6235 39.9087C76.9886 36.8168 78.5488 31.7319 79.2818 28.2775C79.7998 25.8328 80.8907 20.8359 80.8907 20.8359L86.6228 20.7832C86.6228 20.7832 85.0031 28.5628 84.3293 32.4472C84.0879 33.8386 83.5901 35.1488 84.1099 36.178C84.6037 37.157 85.2949 37.227 87.4016 37.2753C88.069 37.2908 90.2547 37.2753 90.2547 37.2753L94.2048 20.816Z" fill="#1A1918"/>
<path fill-rule="evenodd" clip-rule="evenodd" d="M68.3091 31.3499C68.8884 29.2915 69.7332 27.0596 69.6257 25.2051C69.5096 23.2214 67.8462 21.4152 66.773 21.0357C63.5405 19.8943 60.5142 21.4899 59.3116 22.7911C57.7554 24.4767 57.2287 26.4453 56.6779 29.1555C56.2677 31.1677 55.9318 33.2921 56.6779 34.8612C57.9989 37.6353 62.1181 37.0296 66.5534 37.0559C67.2117 35.2916 67.756 33.3097 68.3091 31.3499ZM75.9902 23.2301C76.6222 27.8255 74.1973 32.8974 72.5271 37.3081C74.2301 37.4618 75.7225 37.2843 75.83 37.4113C75.9418 37.5761 74.6887 42.6762 74.2518 42.6892C72.9001 42.7245 68.4212 42.7617 66.5534 42.7617C60.4591 42.7617 54.7577 43.1589 51.8501 40.1283C50.6694 38.8971 49.8531 36.7858 49.6554 35.3002C49.3261 32.8202 49.7388 30.0902 50.3138 27.8388C50.8339 25.8064 51.501 23.8884 52.5085 22.1327C55.0693 17.6625 59.5244 14.3444 66.9924 15.1103C68.4407 15.2596 70.5211 15.8938 71.8204 16.6463C71.9103 16.6993 72.2244 16.9493 72.2966 16.9933C74.0523 18.1105 75.6522 20.7767 75.9902 23.2301Z" fill="#1A1918"/>
<path fill-rule="evenodd" clip-rule="evenodd" d="M49.0256 20.8425C48.6569 22.5214 48.2882 24.4242 47.8997 26.0832H41.7549C42.2311 24.2442 42.5955 22.416 43.0716 20.8162C45.038 20.8162 46.8662 20.8425 49.0256 20.8425Z" fill="#1A1918"/>
<path fill-rule="evenodd" clip-rule="evenodd" d="M41.5356 27.6194H47.4607C46.6862 31.9078 45.1523 38.8249 43.9496 43.6396C43.1968 46.6528 42.6943 48.8519 40.6576 50.4428C40.4754 50.5856 40.3704 50.5177 40.2189 50.6624C39.8434 51.0202 38.1075 51.4351 37.1465 51.5401C35.5838 51.7093 33.8173 51.5621 31.8971 51.5227C32.3996 49.6859 32.9681 47.4804 33.4158 45.8343C38.0967 46.4007 38.2154 41.9763 39.1215 37.7145C39.6461 35.2522 41.2351 28.6071 41.5356 27.6194Z" fill="#1A1918"/>
<path fill-rule="evenodd" clip-rule="evenodd" d="M27.7097 38.8116L27.5827 39.1406C25.4187 43.354 21.5848 45.9394 16.116 46.0534C13.5595 46.1061 11.1235 45.4502 9.53227 44.7367C6.09803 43.1939 3.20967 40.3325 1.63212 37.2753C-0.630726 32.8927 -1.03875 26.7963 3.66633 22.2427C3.73883 22.2427 3.09566 23.23 3.16816 23.23L3.03866 23.6514C-0.351897 34.2664 10.094 43.363 20.2483 42.3227C22.6886 42.0727 25.8007 40.7361 27.7097 38.8116Z" fill="#21609B"/>
<path fill-rule="evenodd" clip-rule="evenodd" d="M21.565 34.4223C24.1196 34.44 26.788 33.246 28.3681 31.5696C26.9857 35.0788 22.983 37.3345 17.6149 36.617C13.1205 36.0157 8.8389 31.4928 8.39774 26.9609C8.07522 23.6626 9.22493 21.6941 11.1191 19.3064C10.4608 20.5552 10.2148 21.5184 10.1534 22.1328C9.43374 29.2674 15.8527 34.3851 21.565 34.4223Z" fill="#21609B"/>
<path fill-rule="evenodd" clip-rule="evenodd" d="M28.1116 25.5607C27.7144 26.4716 25.4277 28.1919 24.418 28.407C20.4196 29.2586 17.8587 27.3626 16.5176 25.2051C16.318 24.8826 15.9494 24.0027 15.8834 23.7787C15.3632 22.01 15.6024 19.3348 17.1542 17.95C16.6867 19.2666 16.6186 20.7962 16.8645 21.7904C17.0136 22.3917 17.4677 23.441 17.9222 24.1012C18.7494 25.3039 19.2739 25.5961 20.3363 26.2346C20.8146 26.5221 21.328 26.7526 21.5498 26.8161C22.557 27.1123 24.6835 27.8936 28.1116 25.5607Z" fill="#21609B"/>
</svg>
