<svg width="160" height="53" viewBox="0 0 160 53" fill="none" xmlns="http://www.w3.org/2000/svg">
<path fill-rule="evenodd" clip-rule="evenodd" d="M148.973 26.5733C148.829 26.6018 148.685 26.9147 148.685 27.0853C148.656 28.2229 148.627 31.2381 148.627 33.2858C148.627 33.3428 148.713 33.4564 148.8 33.4564C149.232 33.4849 150.271 33.5134 151.165 33.5134C152.405 33.5134 153.126 33.3428 153.529 33.1722C154.567 32.6602 155.058 31.5508 155.058 30.3277C155.058 27.5688 153.097 26.5163 150.184 26.5163C149.982 26.4881 149.406 26.4881 148.973 26.5733ZM156.413 39.2873C156.413 36.4716 154.308 34.907 150.501 34.907C150.328 34.907 149.117 34.8786 148.829 34.9355C148.742 34.964 148.627 35.0209 148.627 35.1064C148.627 37.1257 148.598 40.3398 148.685 41.5911C148.742 42.1316 149.146 42.8996 149.636 43.1272C150.155 43.4117 151.338 43.4683 152.145 43.4683C154.423 43.4683 156.413 42.217 156.413 39.2873ZM143.09 25.009C143.378 25.009 144.243 25.0942 146.464 25.0942C148.569 25.0942 150.242 25.0375 152.289 25.0375C154.798 25.0375 158.259 25.9192 158.259 29.6166C158.259 31.4371 156.961 32.8877 155.259 33.5988C155.173 33.6273 155.173 33.684 155.259 33.7124C157.682 34.3099 159.816 35.789 159.816 38.5763C159.816 41.3069 158.086 43.0417 155.577 44.1227C154.048 44.7768 152.145 45.0044 150.213 45.0044C148.742 45.0044 144.791 44.8338 142.6 44.8907C142.369 44.8053 142.802 43.7813 143.003 43.6107C143.523 43.5822 143.926 43.5538 144.474 43.3832C145.253 43.1841 145.339 42.9566 145.455 41.7905C145.512 40.7949 145.512 37.2678 145.512 34.7649C145.512 31.3232 145.541 28.991 145.512 27.8533C145.484 26.9717 145.166 26.6872 144.532 26.5163C144.042 26.4312 143.234 26.3173 142.571 26.2321C142.427 26.0897 142.917 25.1227 143.09 25.009ZM126.45 42.7006C127.143 43.2408 128.498 43.4683 129.709 43.4683C131.266 43.4683 132.824 43.1841 134.323 41.8471C135.852 40.482 136.919 38.3772 136.919 35.0209C136.919 31.8068 135.679 29.19 133.141 27.6542C131.699 26.7723 129.853 26.4027 127.719 26.4027C127.085 26.4027 126.479 26.4312 126.104 26.6018C126.018 26.6587 125.816 26.9147 125.816 27.0568C125.758 27.6258 125.758 32.0058 125.758 34.5659C125.758 37.2111 125.758 40.9085 125.816 41.3351C125.816 41.762 126.018 42.4161 126.45 42.7006ZM119.904 25.009C120.452 25.009 122.557 25.0942 123.567 25.0942C125.383 25.0942 126.681 25.009 130.113 25.009C132.997 25.009 135.419 25.7771 137.149 27.2274C139.254 29.0194 140.35 31.4941 140.35 34.5089C140.35 38.8038 138.36 41.2784 136.371 42.7006C134.381 44.1512 131.785 45.0044 128.094 45.0044C126.133 45.0044 122.759 44.9474 119.962 44.9189H119.933C119.789 44.6632 120.164 43.6677 120.394 43.6392C121.144 43.5538 121.346 43.5253 121.721 43.3832C122.326 43.1556 122.442 42.8427 122.529 41.7905C122.615 39.8278 122.586 37.4671 122.586 34.7934C122.586 32.8877 122.615 29.1615 122.557 27.9669C122.471 26.9717 122.038 26.7157 121.173 26.5448C120.74 26.4596 120.164 26.3457 119.356 26.2606C119.241 26.0613 119.76 25.1796 119.904 25.009Z" fill="#8E714E"/>
<path fill-rule="evenodd" clip-rule="evenodd" d="M85.0103 43.8097C84.2894 43.7243 83.7703 43.6107 83.1357 43.3262C83.0493 43.2692 82.905 42.985 82.905 42.8711C82.8472 41.8756 82.8472 39.0313 82.8472 37.1256C82.8472 35.5896 82.5879 34.2529 81.9245 33.3143C81.1458 32.2333 80.0212 31.6077 78.5793 31.6077C77.3104 31.6077 75.6089 32.4611 74.1959 33.6557C74.167 33.6839 73.9363 33.8832 73.9652 33.5703C73.9652 33.2573 74.0229 32.6317 74.0518 32.2051C74.0807 31.8067 73.85 31.6077 73.85 31.6077C72.927 32.0627 70.3316 32.6602 69.38 32.7453C68.6879 32.8877 68.515 33.5418 69.2359 33.7693H69.2648C70.0432 33.9969 70.5623 34.2529 70.966 34.5089C71.2544 34.7364 71.2255 35.0494 71.2255 35.3054C71.2544 37.4386 71.2544 40.7095 71.168 42.5015C71.1392 43.2126 70.9373 43.4683 70.4182 43.5822L70.4757 43.5537C70.0721 43.6392 69.7548 43.7243 69.2645 43.7813C69.0915 43.9518 69.0915 44.8622 69.2645 45.0613C69.5818 45.0613 71.2544 44.9759 72.6388 44.9759C74.5421 44.9759 75.5226 45.0613 76.0128 45.0613C76.2146 44.8338 76.2724 43.9803 76.1569 43.7813C75.6089 43.7528 75.2053 43.6961 74.8305 43.5822C74.3114 43.4683 74.167 43.2126 74.1382 42.6151C74.0807 41.1076 74.0807 37.9221 74.0807 35.7604C74.0807 35.163 74.2536 34.8785 74.4266 34.7079C75.0898 34.1393 76.1569 33.7409 77.1085 33.7409C78.0313 33.7409 78.637 34.0254 79.0984 34.3953C79.7328 34.907 79.9346 35.6465 80.0212 36.187C80.1653 37.4101 80.1078 39.8278 80.1078 41.9325C80.1078 43.0702 80.0212 43.3547 79.5887 43.4968C79.3869 43.5822 78.8677 43.6961 78.262 43.7528C78.0602 43.9518 78.1179 44.8338 78.262 45.0328C79.0984 45.0328 80.0789 44.9474 81.5208 44.9474C83.3086 44.9474 84.4623 45.0328 84.9237 45.0328C85.0678 44.8622 85.1255 44.0373 85.0101 43.8097H85.0103ZM92.9985 32.9446C91.47 32.9446 90.5183 34.1108 90.5183 35.931C90.5183 37.7798 91.3545 39.913 93.7194 39.913C94.123 39.913 94.8729 39.7424 95.2188 39.3443C95.7668 38.8323 96.1418 37.8082 96.1418 36.7275C96.1418 34.3668 94.9592 32.9446 92.9985 32.9446ZM92.7964 45.5164C92.2198 45.5164 91.8159 45.6869 91.5566 45.8293C90.3451 46.5971 89.7974 47.3366 89.7974 48.2185C89.7974 49.0432 90.1144 49.6973 90.8068 50.2663C91.6429 50.9774 92.7964 51.3188 94.2671 51.3188C97.2086 51.3188 98.5065 49.7543 98.5065 48.2185C98.5065 47.1375 97.9585 46.4265 96.8339 46.0284C96.0263 45.6869 94.5556 45.5164 92.7964 45.5164ZM92.9985 52.9115C91.2393 52.9115 89.9703 52.5416 88.8746 51.7169C87.8075 50.9204 87.3461 49.7258 87.3461 48.9011C87.3461 48.6736 87.4039 48.0477 87.923 47.479C88.24 47.1375 88.9321 46.4834 90.5761 45.3742C90.6335 45.3458 90.6624 45.3173 90.6624 45.2603C90.6624 45.2034 90.6047 45.1464 90.5472 45.1182C89.1917 44.6062 88.788 43.7813 88.6725 43.3262V43.2692C88.6439 43.0987 88.5862 42.9281 88.8457 42.7572C89.0476 42.6151 89.336 42.4445 89.653 42.2455C90.1433 41.961 90.6624 41.6481 90.9797 41.392C91.0375 41.3351 91.0374 41.2784 91.0374 41.2215C91.0374 41.1645 90.9797 41.1076 90.922 41.0794C88.9035 40.425 87.8941 38.9459 87.8941 36.7275C87.8941 35.2769 88.5573 33.9684 89.7396 33.1437C90.5472 32.5178 92.5657 31.75 93.8924 31.75H93.979C95.3342 31.7782 96.0841 32.0627 97.1509 32.4326C97.7278 32.6317 98.2758 32.7168 99.0256 32.7168C100.15 32.7168 100.64 32.3757 101.044 31.9776C101.073 32.0343 101.131 32.1766 101.16 32.5463C101.188 32.9162 101.073 33.4564 100.784 33.8548C100.554 34.1675 100.035 34.3953 99.5158 34.3953H99.3715C98.8524 34.3383 98.6217 34.2814 98.6217 34.2814L98.5065 34.3383C98.4776 34.3953 98.5064 34.4519 98.5353 34.5374L98.5642 34.5943C98.6217 34.8503 98.7371 35.6181 98.7371 35.8174C98.7371 38.1497 97.7855 39.1734 96.7761 39.9414C95.7956 40.6525 94.671 41.1076 93.4021 41.2215C93.3732 41.2215 93.258 41.2215 92.9985 41.2499C92.8541 41.2499 92.6523 41.2784 92.6234 41.2784H92.5945C92.3639 41.3351 91.7873 41.6196 91.7873 42.1031C91.7873 42.5297 92.0468 43.0417 93.2866 43.1271C93.5462 43.1556 93.8057 43.1556 94.0942 43.1841C95.7379 43.2977 97.7855 43.4401 98.7371 43.7528C100.064 44.2363 100.9 45.4025 100.9 46.7964C100.9 48.9011 99.3715 50.8637 96.8339 52.0866C95.5938 52.627 94.3537 52.9115 92.9985 52.9115ZM109.436 33.0868C108.83 33.0868 108.282 33.2289 107.879 33.5133C106.754 34.1959 106.177 35.5614 106.177 37.5522C106.177 41.2784 108.081 43.8952 110.791 43.8952C111.599 43.8952 112.233 43.6676 112.781 43.2126C113.617 42.5297 114.05 41.1645 114.05 39.2588C114.05 35.5614 112.176 33.0868 109.436 33.0868ZM109.955 45.2603C105.053 45.2603 103.294 41.705 103.294 38.3772C103.294 36.0449 104.245 34.2529 106.148 32.9729C107.504 32.1482 109.119 31.6931 110.561 31.6931C114.309 31.6931 116.934 34.3383 116.934 38.1497C116.934 40.7379 115.896 42.7857 113.906 44.0373C112.954 44.6629 111.31 45.2603 109.955 45.2603H109.955ZM58.5658 33.0868C57.9601 33.0868 57.4124 33.2289 57.0084 33.5133C55.8839 34.1959 55.307 35.5614 55.307 37.5522C55.307 41.2784 57.2103 43.8952 59.9211 43.8952C60.7286 43.8952 61.363 43.6676 61.911 43.2126C62.7471 42.5297 63.1799 41.1645 63.1799 39.2588C63.1799 35.5614 61.3341 33.0868 58.5658 33.0868ZM59.0849 45.2603C54.1824 45.2603 52.4232 41.705 52.4232 38.3772C52.4232 36.0449 53.3749 34.2529 55.2781 32.9729C56.6337 32.1482 58.2485 31.6931 59.6904 31.6931C63.4395 31.6931 66.0637 34.3383 66.0637 38.1497C66.0637 40.7379 65.0254 42.7857 63.0356 44.0373C62.1128 44.6629 60.4691 45.2603 59.0849 45.2603ZM26.1231 44.9759C26.0653 44.8907 26.0076 44.6347 26.0364 44.3217C26.0364 44.0942 26.0942 43.9518 26.1231 43.8952C26.7285 43.8097 27.0458 43.7243 27.3917 43.6392C27.9686 43.4968 28.1993 43.1841 28.2281 42.473C28.3148 40.7664 28.3148 37.5237 28.2859 35.2769V35.22C28.2859 34.964 28.2859 34.651 27.9686 34.4235C27.5072 34.1393 26.9592 33.8832 26.2383 33.6839C25.9787 33.5988 25.8058 33.4564 25.8346 33.2858C25.8346 33.1152 26.0076 32.9162 26.3826 32.8592C27.3343 32.7738 29.8141 32.1766 30.7946 31.75C30.8524 31.8067 30.939 31.9776 30.939 32.2051L30.9101 32.5178C30.8812 32.8307 30.8524 33.2007 30.8524 33.5703C30.8524 33.6839 30.9678 33.7693 31.0831 33.7693C31.1408 33.7693 31.1985 33.7409 31.2563 33.7124C33.1018 32.2903 34.7744 31.7782 35.6394 31.7782C37.0527 31.7782 38.1484 32.4326 38.9848 33.7978C39.0423 33.8832 39.1001 33.9115 39.1867 33.9115C39.2444 33.9115 39.3307 33.8832 39.3596 33.8263C41.0611 32.5463 42.7625 31.7782 43.8871 31.7782C46.5691 31.7782 48.1553 33.7409 48.1553 37.0687C48.1553 38.0073 48.1553 39.2304 48.1264 40.3398C48.1264 41.3351 48.0976 42.2455 48.0976 42.8996C48.0976 43.0417 48.2994 43.4968 48.6167 43.5822C49.0203 43.7813 49.5683 43.8667 50.2893 43.9803H50.3181C50.3759 44.1794 50.2604 44.9189 50.1452 45.0613C49.972 45.0613 49.7124 45.0613 49.4242 45.0328C48.8762 45.0043 48.0976 44.9759 47.2325 44.9759C45.4445 44.9759 44.5217 45.0043 43.6275 45.0613C43.5701 44.8338 43.5412 44.1512 43.6275 43.9803C44.1467 43.8952 44.4062 43.8097 44.7235 43.7243C45.3004 43.5537 45.4445 43.2977 45.4733 42.5582C45.4733 42.018 45.5885 37.4101 45.4156 36.3007C45.2426 35.163 44.3774 33.8263 42.4741 33.8263C41.7531 33.8263 40.6285 34.1108 39.5326 34.9355C39.4751 34.9924 39.4174 35.1345 39.4174 35.22V35.2484C39.5326 35.8456 39.5326 36.5285 39.5326 37.5807V39.4294C39.5326 40.7095 39.5037 41.9041 39.5326 42.8142C39.5326 43.4401 39.9076 43.5822 40.2249 43.6961C40.3979 43.7243 40.5131 43.7528 40.6574 43.7813C40.917 43.8382 41.1765 43.8952 41.5802 43.9803C41.6379 44.0942 41.6379 44.4639 41.5513 44.7768C41.5224 44.9474 41.4647 45.0328 41.4361 45.0613C40.4556 45.0328 39.4462 45.0043 37.9755 45.0043C37.543 45.0043 36.7931 45.0328 36.1585 45.0328C35.6394 45.0328 35.1492 45.0613 34.861 45.0613C34.8321 45.0043 34.7744 44.8053 34.7744 44.4923C34.7744 44.2363 34.8321 44.0373 34.8899 43.9803C35.0339 43.9518 35.1492 43.9236 35.2935 43.9236C35.6394 43.8667 35.9278 43.8097 36.2163 43.7528C36.7065 43.6107 36.8795 43.3547 36.9083 42.729C36.995 41.3069 37.0813 37.2395 36.8795 36.2155C36.5336 34.5658 35.5819 33.7409 34.0534 33.7409C33.1595 33.7409 32.0347 34.1675 31.1119 34.8503C30.9678 34.964 30.8524 35.2484 30.8524 35.5044V37.1826C30.8524 39.2304 30.8524 41.7904 30.8812 42.8996C30.9101 43.2408 31.0253 43.6392 31.6888 43.7813C31.8329 43.8097 32.0636 43.8667 32.352 43.8952L32.8711 43.9803C32.9289 44.1512 32.9 44.8338 32.7845 45.0613C32.4961 45.0613 32.1502 45.0328 31.7463 45.0328C31.1408 45.0043 30.3621 44.9759 29.4971 44.9759C28.4877 44.9759 27.7668 45.0043 27.1899 45.0328C26.7863 44.9759 26.469 44.9759 26.1231 44.9759Z" fill="#442D22"/>
<path fill-rule="evenodd" clip-rule="evenodd" d="M10.9541 51.8024L9.77175 51.404C9.77175 51.404 9.9161 45.4594 7.75327 45.0329C6.31138 43.3832 7.98396 -24.9369 13.1746 44.8053C13.1746 44.8053 11.3869 45.687 11.0696 47.1945C10.7234 48.6736 10.9541 51.8024 10.9541 51.8024Z" fill="white"/>
<path fill-rule="evenodd" clip-rule="evenodd" d="M10.9541 51.8024L9.77175 51.404C9.77175 51.404 9.9161 45.4594 7.75327 45.0329C6.31138 43.3832 7.98396 -24.9369 13.1746 44.8053C13.1746 44.8053 11.3869 45.687 11.0696 47.1945C10.7234 48.6736 10.9541 51.8024 10.9541 51.8024Z" fill="#A6A385"/>
<path fill-rule="evenodd" clip-rule="evenodd" d="M11.5887 46.0567C11.5887 46.0567 21.9415 39.3441 19.5191 25.3785C17.1833 15.2245 11.6751 11.8966 11.0696 10.6166C10.4064 9.70649 9.77179 8.11377 9.77179 8.11377L10.2046 36.3575C10.2046 36.3859 9.31041 45.0042 11.5887 46.0567Z" fill="white"/>
<path fill-rule="evenodd" clip-rule="evenodd" d="M11.5887 46.0567C11.5887 46.0567 21.9415 39.3441 19.5191 25.3785C17.1833 15.2245 11.6751 11.8966 11.0696 10.6166C10.4064 9.70649 9.77179 8.11377 9.77179 8.11377L10.2046 36.3575C10.2046 36.3859 9.31041 45.0042 11.5887 46.0567Z" fill="#499D4A"/>
<path fill-rule="evenodd" clip-rule="evenodd" d="M9.16628 46.4264C9.16628 46.4264 -0.552162 39.8844 0.0247011 28.3652C0.572424 16.8458 7.43596 11.1857 8.76237 10.1617C9.62767 9.25155 9.65654 8.91013 9.71428 8C10.3197 9.28003 10.2045 27.1422 10.2909 29.2469C10.5504 37.3531 9.82949 44.8907 9.16628 46.4264Z" fill="white"/>
<path fill-rule="evenodd" clip-rule="evenodd" d="M9.16628 46.4264C9.16628 46.4264 -0.552162 39.8844 0.0247011 28.3652C0.572424 16.8458 7.43596 11.1857 8.76237 10.1617C9.62767 9.25155 9.65654 8.91013 9.71428 8C10.3197 9.28003 10.2045 27.1422 10.2909 29.2469C10.5504 37.3531 9.82949 44.8907 9.16628 46.4264Z" fill="#58AA50"/>
</svg>
